<svg version="1.1" xmlns="http://www.w3.org/2000/svg" viewBox="0 0 250 250"><desc>Created with Snap</desc><defs></defs><g transform="matrix(0.03,0,0,0.03,82.8965,136.3655)"><g transform="matrix(25.6674,0,0,25.6674,-2505.0069,-1528.7782)"><g><g><path d="M77,26.7H38.2c-2.1,0-3.8-1.7-3.8-3.8v-8.5c0-2.1,1.7-3.8,3.8-3.8H77c2.1,0,3.8,1.7,3.8,3.8V23C80.8,25,79.1,26.7,77,26.7    z M38.2,13.7c-0.4,0-0.8,0.3-0.8,0.8V23c0,0.4,0.3,0.8,0.8,0.8H77c0.4,0,0.8-0.3,0.8-0.8v-8.5c0-0.4-0.3-0.8-0.8-0.8H38.2z" fill="#e8715b" style=""></path></g><g><path d="M57.6,40.5c-0.6,0-1.2-0.4-1.4-1.1c-0.2-0.8,0.2-1.6,1-1.9l27.9-8.5V18.7c0-0.8,0.7-1.5,1.5-1.5s1.5,0.7,1.5,1.5v12.6    l-30,9.2C57.9,40.5,57.8,40.5,57.6,40.5z" fill="#e8715b" style=""></path></g><g><path d="M59.6,79h-4c-2.2,0-3.9-1.8-3.9-3.9V47.8c0-2.2,1.8-3.9,3.9-3.9h4c2.2,0,3.9,1.8,3.9,3.9v27.2C63.5,77.2,61.8,79,59.6,79z     M55.6,46.9c-0.5,0-0.9,0.4-0.9,0.9v27.2c0,0.5,0.4,0.9,0.9,0.9h4c0.5,0,0.9-0.4,0.9-0.9V47.8c0-0.5-0.4-0.9-0.9-0.9H55.6z" fill="#e8715b" style=""></path></g><g><path d="M17.2,24.6h-6.8c-1.5,0-2.7-1.2-2.7-2.7v-9.6c0-0.8,0.7-1.5,1.5-1.5s1.5,0.7,1.5,1.5v9.4h6.5c0.8,0,1.5,0.7,1.5,1.5    S18,24.6,17.2,24.6z" fill="#e8715b" style=""></path></g><g><path d="M16.9,33c-0.6,0-1.2-0.4-1.4-1.1c-0.2-0.8,0.2-1.6,1-1.9c3.7-1.2,6.2-4.6,6.2-8.5c0-3.4-1.9-6.5-5-8c-0.7-0.4-1-1.3-0.7-2    c0.4-0.7,1.3-1,2-0.7c4.1,2,6.6,6.1,6.6,10.7c0,5.2-3.4,9.8-8.3,11.4C17.2,32.9,17.1,33,16.9,33z" fill="#e8715b" style=""></path></g><g><path d="M10.7,53c-0.8,0-1.5-0.7-1.5-1.5v-19c-4.4-1.8-7.3-6.1-7.3-11c0-4.6,2.5-8.7,6.6-10.7c0.7-0.4,1.6-0.1,2,0.7    c0.4,0.7,0.1,1.6-0.7,2c-3.1,1.5-5,4.6-5,8c0,3.9,2.5,7.3,6.2,8.5c0.6,0.2,1.1,0.8,1.1,1.4v20.1C12.2,52.3,11.6,53,10.7,53z" fill="#e8715b" style=""></path></g><g><path d="M13.8,78.8c-6.6,0-11.9-5.3-11.9-11.9c0-5.2,3.4-9.8,8.3-11.4c0.8-0.2,1.6,0.2,1.9,1c0.2,0.8-0.2,1.6-1,1.9    c-3.7,1.2-6.2,4.6-6.2,8.5c0,4.9,4,8.9,8.9,8.9s8.9-4,8.9-8.9c0-3.9-2.5-7.3-6.2-8.5c-0.6-0.2-1.1-0.8-1.1-1.4V37    c0-0.8,0.7-1.5,1.5-1.5s1.5,0.7,1.5,1.5v19c4.4,1.8,7.3,6.1,7.3,11C25.7,73.5,20.4,78.8,13.8,78.8z" fill="#e8715b" style=""></path></g><g><path d="M13.8,72.3c-2.9,0-5.3-2.4-5.3-5.3s2.4-5.3,5.3-5.3s5.3,2.4,5.3,5.3S16.8,72.3,13.8,72.3z M13.8,64.6    c-1.3,0-2.3,1-2.3,2.3s1,2.3,2.3,2.3s2.3-1,2.3-2.3S15.1,64.6,13.8,64.6z" fill="#e8715b" style=""></path></g></g><desc>Created with Snap</desc><defs></defs></g><g><g transform="matrix(1.024,0,0,-1.024,0,0)"><path d="M290 -11Q238 -11 197 -2Q156 7 107 22Q77 33 62 34L70 215L134 215L151 85Q168 69 206 56Q245 44 291 44Q367 44 406 78Q446 112 446 172Q446 211 424 239Q403 267 367 287Q332 307 270 334Q214 359 172 385Q131 411 100 454Q70 498 70 559Q70 614 99 657Q129 701 184 726Q240 751 314 751Q360 751 395 744Q431 737 476 725Q496 718 510 716L504 548L443 548L423 671Q413 681 381 690Q350 699 313 699Q244 699 208 670Q173 641 173 586Q173 546 194 519Q216 492 248 473Q280 454 350 421Q415 390 456 365Q497 340 526 299Q556 259 556 203Q556 150 526 101Q497 52 436 20Q376 -11 290 -11ZM885 -11Q764 -11 700 68Q637 147 637 279Q637 366 670 432Q703 498 762 534Q822 570 898 570Q991 570 1042 518Q1094 467 1097 371Q1097 310 1090 278L746 278Q748 179 792 118Q836 58 917 58Q957 58 1000 72Q1044 87 1068 107L1087 63Q1058 33 1001 11Q944 -11 885 -11ZM747 331L987 331Q990 352 990 374Q989 439 962 476Q936 514 879 514Q821 514 786 472Q752 430 747 331ZM1185 0L1185 49L1260 55L1260 478L1188 496L1188 550L1326 568L1328 568L1350 550L1350 532L1347 454L1350 454Q1360 471 1386 498Q1412 525 1453 547Q1494 570 1542 570Q1562 570 1575 565L1575 453Q1568 458 1552 462Q1537 467 1518 467Q1435 467 1364 416L1364 56L1491 48L1491 0L1185 0ZM1595 508L1595 555L1827 555L1827 508L1756 495L1857 207L1899 80L1935 203L2036 495L1968 508L1968 555L2171 555L2171 508L2119 495L1926 -8L1841 -8L1640 495L1595 508ZM2455 -11Q2334 -11 2270 68Q2207 147 2207 279Q2207 366 2240 432Q2273 498 2332 534Q2392 570 2468 570Q2561 570 2612 518Q2664 467 2667 371Q2667 310 2660 278L2316 278Q2318 179 2362 118Q2406 58 2487 58Q2527 58 2570 72Q2614 87 2638 107L2657 63Q2628 33 2571 11Q2514 -11 2455 -11ZM2317 331L2557 331Q2560 352 2560 374Q2559 439 2532 476Q2506 514 2449 514Q2391 514 2356 472Q2322 430 2317 331ZM2701 508L2701 555L2934 555L2934 508L2858 496L2941 202L2970 75L2999 203L3095 555L3193 555L3292 203L3321 74L3353 202L3434 495L3358 508L3358 555L3561 555L3561 508L3508 495L3353 -8L3259 -8L3153 345L3127 469L3106 345L3005 -8L2912 -8L2752 496L2701 508ZM3838 -11Q3717 -11 3653 68Q3590 147 3590 279Q3590 366 3623 432Q3656 498 3715 534Q3775 570 3851 570Q3944 570 3995 518Q4047 467 4050 371Q4050 310 4043 278L3699 278Q3701 179 3745 118Q3789 58 3870 58Q3910 58 3953 72Q3997 87 4021 107L4040 63Q4011 33 3954 11Q3897 -11 3838 -11ZM3700 331L3940 331Q3943 352 3943 374Q3942 439 3915 476Q3889 514 3832 514Q3774 514 3739 472Q3705 430 3700 331ZM4138 0L4138 49L4213 55L4213 478L4141 496L4141 550L4279 568L4281 568L4303 550L4303 532L4300 454L4303 454Q4313 471 4339 498Q4365 525 4406 547Q4447 570 4495 570Q4515 570 4528 565L4528 453Q4521 458 4505 462Q4490 467 4471 467Q4388 467 4317 416L4317 56L4444 48L4444 0L4138 0ZM4622 58L4793 277L4624 496L4568 508L4568 555L4822 555L4822 508L4752 496L4843 367L4871 324L4898 367L4993 496L4920 508L4920 555L5131 555L5131 508L5071 496L4905 289L5082 57L5140 48L5140 0L4883 0L4883 48L4949 58L4858 193L4828 238L4801 194L4705 58L4788 48L4788 0L4555 0L4555 48L4622 58Z" fill="#072a55" style=""></path></g></g></g></svg>